<?xml version="1.0" encoding="iso-8859-1"?>
<!-- Uploaded to: SVG Repo, www.svgrepo.com, Generator: SVG Repo Mixer Tools -->
<svg fill="#000000" height="800px" width="800px" version="1.1" id="Layer_1" xmlns="http://www.w3.org/2000/svg" xmlns:xlink="http://www.w3.org/1999/xlink" 
	 viewBox="0 0 299.771 299.771" xml:space="preserve">
<g>
	<g>
		<g>
			<path d="M241.152,290.297l-56.331-100.139v-55.493h12.7c3.518,0,6.35-2.838,6.35-6.35s-2.832-6.35-6.35-6.35h-19.05
				c-3.518,0-6.35,2.838-6.35,6.35v57.156h-50.813v-57.156c0-3.512-2.838-6.35-6.35-6.35h-19.05c-3.512,0-6.35,2.838-6.35,6.35
				s2.838,6.35,6.35,6.35h12.7v55.639l-50.133,100.26c-0.991,1.975-0.889,4.318,0.273,6.191c1.168,1.873,3.2,3.016,5.41,3.016
				h171.45c2.254,0,4.35-1.2,5.493-3.15C242.244,294.672,242.263,292.271,241.152,290.297z M74.446,287.064l44.438-88.894h55.882
				l49.997,88.894H74.446z"/>
			<path d="M100.633,105.156c4.153,4.159,10.084,6.363,17.126,6.363c9.95,0,21.921-4.3,34.012-11.882
				c11.639,7.208,22.917,11.278,32.168,11.278c6.369,0,11.722-2,15.481-5.753c7.004-6.991,7.62-18.885,1.721-33.477
				c-1.866-4.607-4.33-9.364-7.29-14.15c3.537-5.636,6.396-11.282,8.427-16.755c5.499-14.834,4.49-27.057-2.877-34.411
				C195.248,2.203,189.317,0,182.281,0c-9.959,0-21.933,4.314-34.028,11.906C136.62,4.703,125.351,0.635,116.108,0.635
				c-6.363,0-11.722,1.988-15.481,5.747c-7.004,6.998-7.626,18.891-1.721,33.49c1.862,4.599,4.322,9.349,7.278,14.129
				c-3.534,5.635-6.391,11.28-8.421,16.751C92.264,85.585,93.273,97.803,100.633,105.156z M190.441,96.171
				c-3.659,3.671-14.081,2.473-27.278-4.638c4.058-3.236,8.062-6.806,11.936-10.684c3.843-3.85,7.406-7.848,10.65-11.918
				C192.823,82.111,194.059,92.556,190.441,96.171z M151.711,84.29c-5.257-3.811-10.737-8.443-16.248-13.958
				c-5.264-5.27-9.962-10.774-13.955-16.286c3.613-4.893,7.782-9.736,12.419-14.372c4.615-4.617,9.5-8.797,14.424-12.416
				c5.263,3.814,10.745,8.446,16.253,13.952c5.513,5.515,10.144,11.013,13.954,16.295c-3.613,4.892-7.782,9.734-12.417,14.369
				C161.524,76.491,156.637,80.671,151.711,84.29z M182.294,12.713c3.658,0,6.382,0.895,8.147,2.648
				c3.531,3.543,3.524,11.392-0.051,21.018c-1.18,3.187-2.703,6.455-4.512,9.755c-3.696-4.735-7.82-9.405-12.309-13.889
				c-4.517-4.518-9.17-8.635-13.851-12.301C168.056,15.347,175.977,12.713,182.294,12.713z M110.698,35.109
				c-3.696-9.144-4.115-16.707-1.073-19.749c1.333-1.346,3.524-2.026,6.49-2.026c5.108,0,12.377,2.139,20.768,6.665
				c-4.059,3.236-8.065,6.807-11.941,10.684c-3.852,3.856-7.423,7.86-10.671,11.937C112.896,40.076,111.692,37.563,110.698,35.109z
				 M126.477,79.311c4.516,4.519,9.168,8.635,13.849,12.301c-8.334,4.593-16.248,7.225-22.555,7.225
				c-3.651,0-6.394-0.895-8.147-2.654c-3.524-3.537-3.518-11.386,0.057-21.006c1.177-3.184,2.695-6.448,4.5-9.744
				C117.875,70.163,121.995,74.829,126.477,79.311z"/>
			<path d="M150.017,36.722c-10.503,0-19.05,8.547-19.05,19.05c0,10.503,8.547,19.05,19.05,19.05c10.509,0,19.05-8.547,19.05-19.05
				C169.067,45.269,160.513,36.722,150.017,36.722z M150.017,62.122c-3.512,0-6.35-2.845-6.35-6.35s2.838-6.35,6.35-6.35
				c3.505,0,6.35,2.845,6.35,6.35S153.516,62.122,150.017,62.122z"/>
		</g>
	</g>
</g>
</svg>